name C:\Users\Nicos\Desktop\Gil_twoSteps\Study2\ExperimentalData\IK_Splined\Splined_80_meshInts_p02_maxVel_01.mot																																					
datacolumns 38																																					
datarows 2																																					
range 0.056000 0.05643414																																					
endheader																																					
                time	         pelvis_tilt	         pelvis_list	     pelvis_rotation	           pelvis_tx	           pelvis_ty	           pelvis_tz	       hip_flexion_r	     hip_adduction_r	      hip_rotation_r	        knee_angle_r	       ankle_angle_r	    subtalar_angle_r	         mtp_angle_r	       hip_flexion_l	     hip_adduction_l	      hip_rotation_l	        knee_angle_l	       ankle_angle_l	    subtalar_angle_l	         mtp_angle_l	    lumbar_extension	      lumbar_bending	     lumbar_rotation	          arm_flex_r	           arm_add_r	           arm_rot_r	        elbow_flex_r	           pro_sup_r	        wrist_flex_r	         wrist_dev_r	          arm_flex_l	           arm_add_l	           arm_rot_l	        elbow_flex_l	           pro_sup_l	        wrist_flex_l	         wrist_dev_l
0.056	4.99930159	-1.46373305	-0.25776319	-1.87121466	1.00263233	0.28681654	29.24026972	-0.78652057	-2.37914183	-32.26936812	-11.66866834	-12.48869523	3.45205773	19.23433415	-1.10140012	-11.55804968	-133.5329538	-15.01130516	-13.52683631	11.45083895	-26.72652122	7.05731329	-5.7178278	-21.09382145	-14.3336972	-4.39168812	101.5823177	65.50953991	-8.37888651	6.78380357	-15.45028272	-14.5522834	-2.22961543	58.51448841	69.95154621	-3.37224652	11.19789332
0.05643414	4.99930159	1.46373305	0.25776319	-1.86695229	1.00263233	0.28681654	19.23433415	-1.10140012	-11.55804968	-133.5329538	-15.01130516	-13.52683631	11.45083895	29.24026972	-0.78652057	-2.37914183	-32.26936812	-11.66866834	-12.48869523	3.45205773	-26.72652122	-7.05731329	5.7178278	-15.45028272	-14.5522834	-2.22961543	58.51448841	69.95154621	-3.37224652	11.19789332	-21.09382145	-14.3336972	-4.39168812	101.5823177	65.50953991	-8.37888651	6.78380357
